<?xml version="1.0" encoding="UTF-8" standalone="no"?>
<!-- Created with Inkscape (http://www.inkscape.org/) -->

<svg
   xmlns:dc="http://purl.org/dc/elements/1.1/"
   xmlns:cc="http://creativecommons.org/ns#"
   xmlns:rdf="http://www.w3.org/1999/02/22-rdf-syntax-ns#"
   xmlns:svg="http://www.w3.org/2000/svg"
   xmlns="http://www.w3.org/2000/svg"
   xmlns:sodipodi="http://sodipodi.sourceforge.net/DTD/sodipodi-0.dtd"
   xmlns:inkscape="http://www.inkscape.org/namespaces/inkscape"
   width="245.86633"
   height="145.40428"
   id="svg2"
   version="1.1"
   inkscape:version="0.48.4 r9939"
   sodipodi:docname="Jade.svg">
  <defs
     id="defs4">
    <filter
       id="filter3863"
       inkscape:label="Drop Shadow"
       color-interpolation-filters="sRGB">
      <feFlood
         id="feFlood3865"
         flood-opacity="0.55645161290322576"
         flood-color="rgb(0,0,0)"
         result="flood" />
      <feComposite
         id="feComposite3867"
         in2="SourceGraphic"
         in="flood"
         operator="in"
         result="composite1" />
      <feGaussianBlur
         id="feGaussianBlur3869"
         stdDeviation="1.02"
         result="blur" />
      <feOffset
         id="feOffset3871"
         dx="0"
         dy="-0.86956521739129755"
         result="offset" />
      <feComposite
         id="feComposite3873"
         operator="over"
         result="composite2"
         in="SourceGraphic"
         in2="offset" />
    </filter>
  </defs>
  <sodipodi:namedview
     id="base"
     pagecolor="#00a86b"
     bordercolor="#666666"
     borderopacity="1.0"
     inkscape:pageopacity="1"
     inkscape:pageshadow="2"
     inkscape:zoom="2.4457576"
     inkscape:cx="121.72777"
     inkscape:cy="67.585034"
     inkscape:document-units="px"
     inkscape:current-layer="layer1"
     showgrid="false"
     fit-margin-top="-6"
     fit-margin-left="-6"
     fit-margin-right="-3"
     fit-margin-bottom="-3"
     inkscape:window-width="1301"
     inkscape:window-height="744"
     inkscape:window-x="65"
     inkscape:window-y="24"
     inkscape:window-maximized="1"
     borderlayer="true" />
  <metadata
     id="metadata7">
    <rdf:RDF>
      <cc:Work
         rdf:about="">
        <dc:format>image/svg+xml</dc:format>
        <dc:type
           rdf:resource="http://purl.org/dc/dcmitype/StillImage" />
        <dc:title></dc:title>
      </cc:Work>
    </rdf:RDF>
  </metadata>
  <g
     inkscape:label="Layer 1"
     inkscape:groupmode="layer"
     id="layer1"
     transform="translate(-672.57321,-691.00516)">
    <rect
       style="fill:#00a86b;fill-opacity:1;stroke:none"
       id="rect4057"
       width="248.18486"
       height="146.37592"
       x="672.57318"
       y="690.03351" />
    <g
       style="font-size:60.63523101999999909px;font-style:normal;font-variant:normal;font-weight:normal;font-stretch:normal;line-height:125%;letter-spacing:3.90000010000000019px;word-spacing:0px;fill:#f7f5ff;fill-opacity:1;stroke:none;filter:url(#filter3863);font-family:Merriweather;-inkscape-font-specification:Merriweather"
       id="text3015"
       transform="matrix(1.1388486,0,0,1.1388486,-93.090223,-116.30836)">
      <path
         d="m 699.00142,755.0761 -8.74864,0 0,71.54444 8.74864,0 0,-71.54444 m -4.37432,-26.92637 c -3.30504,0 -6.02684,2.7218 -6.02684,6.12405 0,3.30504 2.7218,5.92963 6.02684,5.92963 3.30504,0 6.02684,-2.62459 6.02684,-5.92963 0,-3.40225 -2.7218,-6.12405 -6.02684,-6.12405"
         style="font-size:97.20711516999999446px;font-weight:500;text-align:start;line-height:125%;writing-mode:lr-tb;text-anchor:start;fill:#f7f5ff;font-family:Futura Std;-inkscape-font-specification:Futura Std Medium;fill-opacity:1"
         id="path3896"
         inkscape:connector-curvature="0" />
      <path
         d="m 733.82597,794.34778 c -9.23466,0 -14.38665,-7.971 -14.38665,-16.52521 0,-8.45701 5.3464,-16.3308 14.38665,-16.3308 9.42908,0 14.77548,7.48496 14.77548,16.3308 0,8.94304 -5.24919,16.52521 -14.77548,16.52521 m 23.03809,-39.27168 -8.74864,0 0,7.58216 -0.19442,0 c -3.59666,-5.4436 -9.04026,-8.94306 -15.74755,-8.94306 -13.22015,0 -21.48277,11.37325 -21.48277,23.81574 0,13.02574 7.87379,24.5934 21.77439,24.5934 6.51287,0 11.95648,-3.49946 15.45593,-8.65143 l 0.19442,0 0,7.09612 8.74864,0 0,-45.49293"
         style="font-size:97.20711516999999446px;font-weight:500;text-align:start;line-height:125%;writing-mode:lr-tb;text-anchor:start;fill:#f7f5ff;font-family:Futura Std;-inkscape-font-specification:Futura Std Medium;fill-opacity:1"
         id="path3898"
         inkscape:connector-curvature="0" />
      <path
         d="m 791.8354,794.34778 c -9.23467,0 -14.38665,-7.971 -14.38665,-16.52521 0,-8.45701 5.3464,-16.3308 14.38665,-16.3308 9.42908,0 14.77548,7.48496 14.77548,16.3308 0,8.94304 -5.24919,16.52521 -14.77548,16.52521 m 14.28945,6.22125 8.74864,0 0,-84.37578 -8.74864,0 0,46.46501 -0.19442,0 c -3.59666,-5.4436 -9.04027,-8.94306 -15.84476,-8.94306 -13.12295,0 -21.38556,11.37325 -21.38556,23.81574 0,13.02574 7.77658,24.5934 21.77439,24.5934 6.41566,0 11.95648,-3.49946 15.45593,-8.65143 l 0.19442,0 0,7.09612"
         style="font-size:97.20711516999999446px;font-weight:500;text-align:start;line-height:125%;writing-mode:lr-tb;text-anchor:start;fill:#f7f5ff;font-family:Futura Std;-inkscape-font-specification:Futura Std Medium;fill-opacity:1"
         id="path3900"
         inkscape:connector-curvature="0" />
      <path
         d="m 870.16111,779.28067 0,-1.3609 c 0,-13.51177 -6.80451,-24.20457 -21.28836,-24.20457 -14.67826,0 -22.16322,10.49838 -22.16322,24.49619 0,13.41457 8.45703,23.91295 22.35764,23.91295 8.84583,0 16.81683,-4.56874 21.09394,-12.44251 l -7.38774,-4.1799 c -3.30504,5.44359 -6.90171,8.84585 -13.609,8.84585 -8.3598,0 -13.60899,-7.29055 -13.7062,-15.06711 l 34.70294,0 m -34.2169,-6.61008 c 1.06927,-6.51287 6.12405,-11.37323 12.92854,-11.37323 6.99891,0 11.47044,4.56874 12.53972,11.37323 l -25.46826,0"
         style="font-size:97.20711516999999446px;font-weight:500;text-align:start;line-height:125%;writing-mode:lr-tb;text-anchor:start;fill:#f7f5ff;font-family:Futura Std;-inkscape-font-specification:Futura Std Medium;fill-opacity:1"
         id="path3902"
         inkscape:connector-curvature="0" />
    </g>
    <g
       transform="matrix(1.1388486,0,0,1.1388486,670.44418,697.00096)"
       style="font-size:40px;font-style:normal;font-variant:normal;font-weight:normal;font-stretch:normal;line-height:125%;letter-spacing:0px;word-spacing:0px;fill:#000000;fill-opacity:1;stroke:none;font-family:Merriweather;-inkscape-font-specification:Merriweather"
       id="text3887">
      <path
         d="m 48.550287,96.848741 -1.408,0 0,9.535999 -6.096,-9.535999 -1.616,0 0,11.663999 1.408,0 0,-9.455999 6.032,9.455999 1.68,0 0,-11.663999"
         style="font-size:16px;letter-spacing:0.18000000999999999px;font-family:Nimbus Sans L;-inkscape-font-specification:Nimbus Sans L;fill:#000000;fill-opacity:1"
         id="path3944"
         inkscape:connector-curvature="0" />
      <path
         d="m 54.308787,99.888741 c -2.351998,0 -3.776,1.679999 -3.776,4.495999 0,2.816 1.408002,4.496 3.792,4.496 2.351998,0 3.792,-1.68 3.792,-4.432 0,-2.896 -1.392002,-4.559999 -3.808,-4.559999 m 0.016,1.231999 c 1.503999,0 2.4,1.232 2.4,3.312 0,1.968 -0.928001,3.216 -2.4,3.216 -1.487998,0 -2.4,-1.232 -2.4,-3.264 0,-2.016 0.912002,-3.264 2.4,-3.264"
         style="font-size:16px;letter-spacing:0.18000000999999999px;font-family:Nimbus Sans L;-inkscape-font-specification:Nimbus Sans L;fill:#000000;fill-opacity:1"
         id="path3946"
         inkscape:connector-curvature="0" />
      <path
         d="m 66.963037,96.848741 -1.328,0 0,4.335999 c -0.559999,-0.848 -1.456001,-1.295999 -2.576,-1.295999 -2.175997,0 -3.6,1.743999 -3.6,4.415999 0,2.832 1.392003,4.576 3.648,4.576 1.151999,0 1.952001,-0.432 2.672,-1.472 l 0,1.104 1.184,0 0,-11.663999 m -3.68,4.287999 c 1.439999,0 2.352,1.28 2.352,3.28 0,1.936 -0.928001,3.216 -2.336,3.216 -1.471998,0 -2.448,-1.296 -2.448,-3.248 0,-1.952 0.976002,-3.248 2.432,-3.248"
         style="font-size:16px;letter-spacing:0.18000000999999999px;font-family:Nimbus Sans L;-inkscape-font-specification:Nimbus Sans L;fill:#000000;fill-opacity:1"
         id="path3948"
         inkscape:connector-curvature="0" />
      <path
         d="m 76.337288,104.76874 c 0,-1.28 -0.096,-2.048 -0.336,-2.672 -0.544,-1.376 -1.824002,-2.207999 -3.392,-2.207999 -2.335998,0 -3.84,1.791999 -3.84,4.543999 0,2.752 1.456002,4.448 3.808,4.448 1.919998,0 3.248,-1.088 3.584,-2.912 l -1.344,0 c -0.368,1.104 -1.120001,1.68 -2.192,1.68 -0.847999,0 -1.568001,-0.384 -2.016,-1.088 -0.32,-0.48 -0.432,-0.96 -0.448,-1.792 l 6.176,0 m -6.144,-1.088 c 0.112,-1.552 1.056001,-2.56 2.4,-2.56 1.311998,0 2.32,1.088 2.32,2.464 0,0.032 0,0.064 -0.016,0.096 l -4.704,0"
         style="font-size:16px;letter-spacing:0.18000000999999999px;font-family:Nimbus Sans L;-inkscape-font-specification:Nimbus Sans L;fill:#000000;fill-opacity:1"
         id="path3950"
         inkscape:connector-curvature="0" />
      <path
         d="m 87.497038,98.160741 3.824,0 0,-1.312 -9.152,0 0,1.312 3.84,0 0,10.351999 1.488,0 0,-10.351999"
         style="font-size:16px;letter-spacing:0.18000000999999999px;font-family:Nimbus Sans L;-inkscape-font-specification:Nimbus Sans L;fill:#000000;fill-opacity:1"
         id="path3952"
         inkscape:connector-curvature="0" />
      <path
         d="m 100.00229,104.76874 c 0,-1.28 -0.096,-2.048 -0.336001,-2.672 -0.544,-1.376 -1.824002,-2.207999 -3.392,-2.207999 -2.335998,0 -3.84,1.791999 -3.84,4.543999 0,2.752 1.456002,4.448 3.808,4.448 1.919998,0 3.248,-1.088 3.584,-2.912 l -1.344,0 c -0.368,1.104 -1.120001,1.68 -2.192,1.68 -0.848,0 -1.568001,-0.384 -2.016,-1.088 -0.32,-0.48 -0.432,-0.96 -0.448,-1.792 l 6.176001,0 m -6.144001,-1.088 c 0.112,-1.552 1.056001,-2.56 2.4,-2.56 1.311998,0 2.32,1.088 2.32,2.464 0,0.032 0,0.064 -0.016,0.096 l -4.704,0"
         style="font-size:16px;letter-spacing:0.18000000999999999px;font-family:Nimbus Sans L;-inkscape-font-specification:Nimbus Sans L;fill:#000000;fill-opacity:1"
         id="path3954"
         inkscape:connector-curvature="0" />
      <path
         d="m 102.00054,100.12874 0,8.384 1.344,0 0,-5.264 c 0,-1.216 0.88,-2.192 1.968,-2.192 0.99199,0 1.552,0.608 1.552,1.68 l 0,5.776 1.344,0 0,-5.264 c 0,-1.216 0.88,-2.192 1.968,-2.192 0.97599,0 1.552,0.624 1.552,1.68 l 0,5.776 1.344,0 0,-6.288 c 0,-1.504 -0.86401,-2.335999 -2.432,-2.335999 -1.12,0 -1.79201,0.335999 -2.576,1.279999 -0.496,-0.896 -1.16801,-1.279999 -2.256,-1.279999 -1.12,0 -1.85601,0.415999 -2.576,1.423999 l 0,-1.184 -1.232,0"
         style="font-size:16px;letter-spacing:0.18000000999999999px;font-family:Nimbus Sans L;-inkscape-font-specification:Nimbus Sans L;fill:#000000;fill-opacity:1"
         id="path3956"
         inkscape:connector-curvature="0" />
      <path
         d="m 115.26829,112.00074 1.344,0 0,-4.368 c 0.704,0.864 1.488,1.248 2.576,1.248 2.16,0 3.584,-1.744 3.584,-4.416 0,-2.816 -1.376,-4.575999 -3.6,-4.575999 -1.136,0 -2.048,0.511999 -2.672,1.503999 l 0,-1.264 -1.232,0 0,11.872 m 3.68,-10.864 c 1.472,0 2.432,1.296 2.432,3.296 0,1.904 -0.976,3.2 -2.432,3.2 -1.408,0 -2.336,-1.28 -2.336,-3.248 0,-1.968 0.928,-3.248 2.336,-3.248"
         style="font-size:16px;letter-spacing:0.18000000999999999px;font-family:Nimbus Sans L;-inkscape-font-specification:Nimbus Sans L;fill:#000000;fill-opacity:1"
         id="path3958"
         inkscape:connector-curvature="0" />
      <path
         d="m 125.92254,96.848741 -1.344,0 0,11.663999 1.344,0 0,-11.663999"
         style="font-size:16px;letter-spacing:0.18000000999999999px;font-family:Nimbus Sans L;-inkscape-font-specification:Nimbus Sans L;fill:#000000;fill-opacity:1"
         id="path3960"
         inkscape:connector-curvature="0" />
      <path
         d="m 135.79304,107.72874 c -0.144,0.032 -0.208,0.032 -0.288,0.032 -0.464,0 -0.72,-0.24 -0.72,-0.656 l 0,-4.928 c 0,-1.488 -1.088,-2.287999 -3.152,-2.287999 -1.216,0 -2.224,0.351999 -2.784,0.975999 -0.384,0.432 -0.544,0.912 -0.576,1.744 l 1.344,0 c 0.112,-1.024 0.72,-1.488 1.968,-1.488 1.2,0 1.872,0.448 1.872,1.248 l 0,0.352 c 0,0.56 -0.336,0.8 -1.392,0.928 -1.888,0.24 -2.176,0.304 -2.688,0.512 -0.976,0.4 -1.472,1.152 -1.472,2.24 0,1.52 1.056,2.48 2.752,2.48 1.056,0 1.904,-0.368 2.848,-1.232 0.096,0.848 0.512,1.232 1.376,1.232 0.272,0 0.48,-0.032 0.912,-0.144 l 0,-1.008 m -2.336,-1.856 c 0,0.448 -0.128,0.72 -0.528,1.088 -0.544,0.496 -1.2,0.752 -1.984,0.752 -1.04,0 -1.648,-0.496 -1.648,-1.344 0,-0.88 0.592,-1.328 2.016,-1.536 1.408,-0.192 1.696,-0.256 2.144,-0.464 l 0,1.504"
         style="font-size:16px;letter-spacing:0.18000000999999999px;font-family:Nimbus Sans L;-inkscape-font-specification:Nimbus Sans L;fill:#000000;fill-opacity:1"
         id="path3962"
         inkscape:connector-curvature="0" />
      <path
         d="m 140.38329,100.12874 -1.376,0 0,-2.303999 -1.328,0 0,2.303999 -1.136,0 0,1.088 1.136,0 0,6.336 c 0,0.848 0.576,1.328 1.616,1.328 0.32,0 0.64,-0.032 1.088,-0.112 l 0,-1.12 c -0.176,0.048 -0.384,0.064 -0.64,0.064 -0.576,0 -0.736,-0.16 -0.736,-0.752 l 0,-5.744 1.376,0 0,-1.088"
         style="font-size:16px;letter-spacing:0.18000000999999999px;font-family:Nimbus Sans L;-inkscape-font-specification:Nimbus Sans L;fill:#000000;fill-opacity:1"
         id="path3964"
         inkscape:connector-curvature="0" />
      <path
         d="m 149.14479,104.76874 c 0,-1.28 -0.096,-2.048 -0.336,-2.672 -0.544,-1.376 -1.824,-2.207999 -3.392,-2.207999 -2.336,0 -3.84,1.791999 -3.84,4.543999 0,2.752 1.456,4.448 3.808,4.448 1.92,0 3.248,-1.088 3.584,-2.912 l -1.344,0 c -0.368,1.104 -1.12,1.68 -2.192,1.68 -0.848,0 -1.568,-0.384 -2.016,-1.088 -0.32,-0.48 -0.432,-0.96 -0.448,-1.792 l 6.176,0 m -6.144,-1.088 c 0.112,-1.552 1.056,-2.56 2.4,-2.56 1.312,0 2.32,1.088 2.32,2.464 0,0.032 0,0.064 -0.016,0.096 l -4.704,0"
         style="font-size:16px;letter-spacing:0.18000000999999999px;font-family:Nimbus Sans L;-inkscape-font-specification:Nimbus Sans L;fill:#000000;fill-opacity:1"
         id="path3966"
         inkscape:connector-curvature="0" />
      <path
         d="m 157.56853,103.20074 6.352,0 0,-1.312 -6.352,0 0,-3.727999 6.592,0 0,-1.312 -8.08,0 0,11.663999 8.368,0 0,-1.312 -6.88,0 0,-4"
         style="font-size:16px;letter-spacing:0.18000000999999999px;font-family:Nimbus Sans L;-inkscape-font-specification:Nimbus Sans L;fill:#000000;fill-opacity:1"
         id="path3968"
         inkscape:connector-curvature="0" />
      <path
         d="m 166.62803,100.12874 0,8.384 1.344,0 0,-4.624 c 0,-1.712 0.89601,-2.832 2.272,-2.832 1.056,0 1.728,0.64 1.728,1.648 l 0,5.808 1.328,0 0,-6.336 c 0,-1.392 -1.04,-2.287999 -2.656,-2.287999 -1.24799,0 -2.048,0.479999 -2.784,1.647999 l 0,-1.408 -1.232,0"
         style="font-size:16px;letter-spacing:0.18000000999999999px;font-family:Nimbus Sans L;-inkscape-font-specification:Nimbus Sans L;fill:#000000;fill-opacity:1"
         id="path3970"
         inkscape:connector-curvature="0" />
      <path
         d="m 181.18629,100.12874 0,1.216 c -0.672,-0.992 -1.488,-1.455999 -2.56,-1.455999 -2.128,0 -3.568,1.855999 -3.568,4.575999 0,1.376 0.368,2.496 1.056,3.296 0.624,0.704 1.52,1.12 2.4,1.12 1.056,0 1.792,-0.448 2.544,-1.504 l 0,0.432 c 0,1.136 -0.144,1.824 -0.48,2.288 -0.352,0.496 -1.04,0.784 -1.856,0.784 -0.608,0 -1.152,-0.16 -1.52,-0.448 -0.304,-0.24 -0.432,-0.464 -0.512,-0.96 l -1.36,0 c 0.144,1.584 1.376,2.528 3.344,2.528 1.248,0 2.32,-0.4 2.864,-1.072 0.64,-0.768 0.88,-1.824 0.88,-3.792 l 0,-7.008 -1.232,0 m -2.416,0.992 c 1.44,0 2.288,1.216 2.288,3.312 0,2 -0.864,3.216 -2.272,3.216 -1.456,0 -2.336,-1.232 -2.336,-3.264 0,-2.016 0.896,-3.264 2.32,-3.264"
         style="font-size:16px;letter-spacing:0.18000000999999999px;font-family:Nimbus Sans L;-inkscape-font-specification:Nimbus Sans L;fill:#000000;fill-opacity:1"
         id="path3972"
         inkscape:connector-curvature="0" />
      <path
         d="m 186.08053,100.12874 -1.328,0 0,8.384 1.328,0 0,-8.384 m 0,-3.279999 -1.344,0 0,1.68 1.344,0 0,-1.68"
         style="font-size:16px;letter-spacing:0.18000000999999999px;font-family:Nimbus Sans L;-inkscape-font-specification:Nimbus Sans L;fill:#000000;fill-opacity:1"
         id="path3974"
         inkscape:connector-curvature="0" />
      <path
         d="m 188.54304,100.12874 0,8.384 1.344,0 0,-4.624 c 0,-1.712 0.896,-2.832 2.272,-2.832 1.056,0 1.728,0.64 1.728,1.648 l 0,5.808 1.328,0 0,-6.336 c 0,-1.392 -1.04,-2.287999 -2.656,-2.287999 -1.248,0 -2.048,0.479999 -2.784,1.647999 l 0,-1.408 -1.232,0"
         style="font-size:16px;letter-spacing:0.18000000999999999px;font-family:Nimbus Sans L;-inkscape-font-specification:Nimbus Sans L;fill:#000000;fill-opacity:1"
         id="path3976"
         inkscape:connector-curvature="0" />
      <path
         d="m 204.71728,104.76874 c 0,-1.28 -0.096,-2.048 -0.336,-2.672 -0.54399,-1.376 -1.824,-2.207999 -3.392,-2.207999 -2.33599,0 -3.84,1.791999 -3.84,4.543999 0,2.752 1.45601,4.448 3.808,4.448 1.92,0 3.24801,-1.088 3.584,-2.912 l -1.344,0 c -0.36799,1.104 -1.12,1.68 -2.192,1.68 -0.84799,0 -1.568,-0.384 -2.016,-1.088 -0.31999,-0.48 -0.432,-0.96 -0.448,-1.792 l 6.176,0 m -6.144,-1.088 c 0.112,-1.552 1.05601,-2.56 2.4,-2.56 1.312,0 2.32,1.088 2.32,2.464 0,0.032 0,0.064 -0.016,0.096 l -4.704,0"
         style="font-size:16px;letter-spacing:0.18000000999999999px;font-family:Nimbus Sans L;-inkscape-font-specification:Nimbus Sans L;fill:#000000;fill-opacity:1"
         id="path3978"
         inkscape:connector-curvature="0" />
    </g>
    <text
       xml:space="preserve"
       style="font-size:40px;font-style:normal;font-variant:normal;font-weight:normal;font-stretch:normal;line-height:125%;letter-spacing:0px;word-spacing:0px;fill:#000000;fill-opacity:1;stroke:none;font-family:Merriweather;-inkscape-font-specification:Merriweather"
       x="196.25821"
       y="128.4192"
       id="text3891"
       sodipodi:linespacing="125%"
       transform="translate(670.44418,714.15053)"><tspan
         sodipodi:role="line"
         id="tspan3893"
         x="196.25821"
         y="128.4192" /></text>
  </g>
</svg>
